# MagicaVoxel @ Ephtracy

# group
o 

# material
mtllib neckBottom.mtl
usemtl palette

# normals
vn -1 0 0
vn 1 0 0
vn 0 0 1
vn 0 0 -1
vn 0 -1 0
vn 0 1 0

# texcoords
vt 0.416016 0.5
vt 0.419922 0.5
vt 0.986328 0.5

# verts
v -7.5 20.2 -7.6
v -7.5 20.2 -10.6
v -7.5 21.8 -7.6
v -7.5 21.8 -10.6
v -7.3 21.8 -7.8
v -7.3 21.8 -10.4
v -7.3 23.2 -7.8
v -7.3 23.2 -10.4
v -4.7 21.8 -7.8
v -4.7 21.8 -10.4
v -4.7 23.2 -7.8
v -4.7 23.2 -10.4
v -4.5 20.2 -7.6
v -4.5 20.2 -10.6
v -4.5 21.8 -7.6
v -4.5 21.8 -10.6
v -7.5 20.2 -7.6
v -7.5 21.8 -7.6
v -4.5 20.2 -7.6
v -4.5 21.8 -7.6
v -7.3 21.8 -7.8
v -7.3 23.2 -7.8
v -4.7 21.8 -7.8
v -4.7 23.2 -7.8
v -7.3 21.8 -10.4
v -7.3 23.2 -10.4
v -4.7 21.8 -10.4
v -4.7 23.2 -10.4
v -7.5 20.2 -10.6
v -7.5 21.8 -10.6
v -4.5 20.2 -10.6
v -4.5 21.8 -10.6
v -7.5 20.2 -7.6
v -4.5 20.2 -7.6
v -7.5 20.2 -10.6
v -4.5 20.2 -10.6
v -7.5 21.8 -7.6
v -4.5 21.8 -7.6
v -7.3 21.8 -7.8
v -4.7 21.8 -7.8
v -7.3 21.8 -10.4
v -4.7 21.8 -10.4
v -7.5 21.8 -10.6
v -4.5 21.8 -10.6
v -7.3 23.2 -7.8
v -4.7 23.2 -7.8
v -7.3 23.2 -10.4
v -4.7 23.2 -10.4

# faces
f 3/1/1 2/1/1 1/1/1
f 4/1/1 2/1/1 3/1/1
f 7/2/1 6/2/1 5/2/1
f 8/2/1 6/2/1 7/2/1
f 9/2/2 10/2/2 11/2/2
f 11/2/2 10/2/2 12/2/2
f 13/1/2 14/1/2 15/1/2
f 15/1/2 14/1/2 16/1/2
f 19/1/3 18/1/3 17/1/3
f 20/1/3 18/1/3 19/1/3
f 23/2/3 22/2/3 21/2/3
f 24/2/3 22/2/3 23/2/3
f 25/2/4 26/2/4 27/2/4
f 27/2/4 26/2/4 28/2/4
f 29/1/4 30/1/4 31/1/4
f 31/1/4 30/1/4 32/1/4
f 35/1/5 34/1/5 33/1/5
f 36/1/5 34/1/5 35/1/5
f 37/1/6 38/1/6 39/1/6
f 39/1/6 38/1/6 40/1/6
f 37/1/6 39/1/6 41/1/6
f 40/1/6 38/1/6 42/1/6
f 37/1/6 41/1/6 43/1/6
f 41/1/6 42/1/6 43/1/6
f 42/1/6 38/1/6 44/1/6
f 43/1/6 42/1/6 44/1/6
f 45/2/6 46/2/6 47/2/6
f 47/2/6 46/2/6 48/2/6
