# MagicaVoxel @ Ephtracy

# group
o 

# material
mtllib foot4.mtl
usemtl palette

# normals
vn -1 0 0
vn 1 0 0
vn 0 0 1
vn 0 0 -1
vn 0 -1 0
vn 0 1 0

# texcoords
vt 0.982422 0.5

# verts
v 12.2 2.3 -30.6
v 12.2 2.3 -31.4
v 12.2 2.5 -30.6
v 12.2 2.5 -30.8
v 12.2 2.5 -31.2
v 12.2 2.5 -31.4
v 12.2 2.7 -30.8
v 12.2 2.7 -31.2
v 12.3 2.7 -30.8
v 12.3 2.7 -31.2
v 12.3 4.3 -30.8
v 12.3 4.3 -31.2
v 12.4 2.5 -30.6
v 12.4 2.5 -30.8
v 12.4 2.5 -31.2
v 12.4 2.5 -31.4
v 12.4 3.1 -31.2
v 12.4 3.1 -31.4
v 12.4 3.3 -30.6
v 12.4 3.3 -30.8
v 12.5 3.1 -31.2
v 12.5 3.1 -31.4
v 12.5 3.3 -30.6
v 12.5 3.3 -30.8
v 12.5 4.3 -30.8
v 12.5 4.3 -31.2
v 12.5 8.6 -30.6
v 12.5 8.6 -31.4
v 13.4 2.3 -30.6
v 13.4 2.3 -31.4
v 13.4 8.6 -30.6
v 13.4 8.6 -31.4
v 12.2 2.3 -30.6
v 12.2 2.5 -30.6
v 12.4 2.5 -30.6
v 12.4 3.3 -30.6
v 12.5 3.3 -30.6
v 12.5 8.6 -30.6
v 13.4 2.3 -30.6
v 13.4 8.6 -30.6
v 12.2 2.5 -30.8
v 12.2 2.7 -30.8
v 12.3 2.7 -30.8
v 12.3 4.3 -30.8
v 12.4 2.5 -30.8
v 12.4 3.3 -30.8
v 12.5 3.3 -30.8
v 12.5 4.3 -30.8
v 12.2 2.5 -31.2
v 12.2 2.7 -31.2
v 12.3 2.7 -31.2
v 12.3 4.3 -31.2
v 12.4 2.5 -31.2
v 12.4 3.1 -31.2
v 12.5 3.1 -31.2
v 12.5 4.3 -31.2
v 12.2 2.3 -31.4
v 12.2 2.5 -31.4
v 12.4 2.5 -31.4
v 12.4 3.1 -31.4
v 12.5 3.1 -31.4
v 12.5 8.6 -31.4
v 13.4 2.3 -31.4
v 13.4 8.6 -31.4
v 12.2 2.3 -30.6
v 13.4 2.3 -30.6
v 12.2 2.3 -31.4
v 13.4 2.3 -31.4
v 12.2 2.5 -30.6
v 12.4 2.5 -30.6
v 12.2 2.5 -30.8
v 12.4 2.5 -30.8
v 12.2 2.5 -31.2
v 12.4 2.5 -31.2
v 12.2 2.5 -31.4
v 12.4 2.5 -31.4
v 12.2 2.7 -30.8
v 12.3 2.7 -30.8
v 12.2 2.7 -31.2
v 12.3 2.7 -31.2
v 12.4 3.1 -31.2
v 12.5 3.1 -31.2
v 12.4 3.1 -31.4
v 12.5 3.1 -31.4
v 12.4 3.3 -30.6
v 12.5 3.3 -30.6
v 12.4 3.3 -30.8
v 12.5 3.3 -30.8
v 12.3 4.3 -30.8
v 12.5 4.3 -30.8
v 12.3 4.3 -31.2
v 12.5 4.3 -31.2
v 12.5 8.6 -30.6
v 13.4 8.6 -30.6
v 12.5 8.6 -31.4
v 13.4 8.6 -31.4

# faces
f 3/1/1 2/1/1 1/1/1
f 4/1/1 2/1/1 3/1/1
f 5/1/1 2/1/1 4/1/1
f 6/1/1 2/1/1 5/1/1
f 7/1/1 5/1/1 4/1/1
f 8/1/1 5/1/1 7/1/1
f 11/1/1 10/1/1 9/1/1
f 12/1/1 10/1/1 11/1/1
f 17/1/1 16/1/1 15/1/1
f 18/1/1 16/1/1 17/1/1
f 19/1/1 14/1/1 13/1/1
f 20/1/1 14/1/1 19/1/1
f 25/1/1 24/1/1 23/1/1
f 26/1/1 22/1/1 21/1/1
f 27/1/1 25/1/1 23/1/1
f 27/1/1 26/1/1 25/1/1
f 28/1/1 22/1/1 26/1/1
f 28/1/1 26/1/1 27/1/1
f 29/1/2 30/1/2 31/1/2
f 31/1/2 30/1/2 32/1/2
f 35/1/3 34/1/3 33/1/3
f 37/1/3 36/1/3 35/1/3
f 39/1/3 35/1/3 33/1/3
f 39/1/3 38/1/3 37/1/3
f 39/1/3 37/1/3 35/1/3
f 40/1/3 38/1/3 39/1/3
f 43/1/3 42/1/3 41/1/3
f 45/1/3 43/1/3 41/1/3
f 45/1/3 44/1/3 43/1/3
f 46/1/3 44/1/3 45/1/3
f 47/1/3 44/1/3 46/1/3
f 48/1/3 44/1/3 47/1/3
f 49/1/4 50/1/4 51/1/4
f 49/1/4 51/1/4 53/1/4
f 51/1/4 52/1/4 53/1/4
f 53/1/4 52/1/4 54/1/4
f 54/1/4 52/1/4 55/1/4
f 55/1/4 52/1/4 56/1/4
f 57/1/4 58/1/4 59/1/4
f 59/1/4 60/1/4 61/1/4
f 57/1/4 59/1/4 63/1/4
f 61/1/4 62/1/4 63/1/4
f 59/1/4 61/1/4 63/1/4
f 63/1/4 62/1/4 64/1/4
f 67/1/5 66/1/5 65/1/5
f 68/1/5 66/1/5 67/1/5
f 69/1/6 70/1/6 71/1/6
f 71/1/6 70/1/6 72/1/6
f 73/1/6 74/1/6 75/1/6
f 75/1/6 74/1/6 76/1/6
f 77/1/6 78/1/6 79/1/6
f 79/1/6 78/1/6 80/1/6
f 81/1/6 82/1/6 83/1/6
f 83/1/6 82/1/6 84/1/6
f 85/1/6 86/1/6 87/1/6
f 87/1/6 86/1/6 88/1/6
f 89/1/6 90/1/6 91/1/6
f 91/1/6 90/1/6 92/1/6
f 93/1/6 94/1/6 95/1/6
f 95/1/6 94/1/6 96/1/6
